<?xml version="1.0" encoding="utf-8"?>
<!-- Generator: Adobe Illustrator 28.1.0, SVG Export Plug-In . SVG Version: 6.00 Build 0)  -->
<svg version="1.1" id="Camada_1" xmlns="http://www.w3.org/2000/svg" xmlns:xlink="http://www.w3.org/1999/xlink" x="0px" y="0px"
	 viewBox="0 0 42.1 48.4" style="enable-background:new 0 0 42.1 48.4;" xml:space="preserve">
<style type="text/css">
	.st0{display:none;}
	.st1{display:inline;}
	.st2{fill:#606060;}
	.st3{fill:#D06F00;}
	.st4{fill:#C98BFF;}
	.st5{fill:#74FF2E;}
	.st6{fill:#5CFFE5;}
	.st7{fill:#FFA88B;}
	.st8{fill:#D0D4FF;}
	.st9{fill:#3200FF;}
	.st10{fill:#B9FFC5;}
	.st11{fill:#FF45F7;}
	.st12{fill:#00FBFF;}
</style>
<image style="display:none;overflow:visible;" width="72" height="64" xlink:href="475CF7EC.jpg"  transform="matrix(1 0 0 1 -14.95 -8.4)">
</image>
<rect x="-10.2" y="-9.4" class="st0" width="60.2" height="60.2"/>
<g class="st0">
	<g class="st1">
		<path class="st2" d="M21.1,0.7c4.8,5,20,5.4,20,5.4v17.5c0,11.4-20,24-20,24S1,35,1,23.6V6.1C1,6.1,16.3,5.6,21.1,0.7 M21.1-0.8
			L20.3,0C15.9,4.6,1.1,5,1,5.1l-1,0l0,1v17.5c0,11.8,19.7,24.3,20.5,24.8l0.5,0.3l0.5-0.3c0.8-0.5,20.5-13,20.5-24.8V6.1v-1l-1,0
			C41,5,26.2,4.6,21.8,0L21.1-0.8L21.1-0.8z"/>
	</g>
	<g class="st1">
		<path class="st2" d="M21.1,6.1c3.9,3.2,12.9,3.9,15.5,4.1v13.5c0,8-13.1,17-15.5,18.6C18.6,40.7,5.5,31.7,5.5,23.7V10.2
			C8.2,10,17.2,9.3,21.1,6.1 M21.1,5.1c-3.9,4-16.3,4.4-16.3,4.4v14.3c0,9.3,16.3,19.5,16.3,19.5S37.3,33,37.3,23.7V9.4
			C37.3,9.4,24.9,9.1,21.1,5.1L21.1,5.1z"/>
	</g>
	<g class="st1">
		<g>
			<path d="M30.4,20v5.5H11.9V20H30.4z M24,31.6h-5.7V13.9H24V31.6z"/>
		</g>
	</g>
</g>
<g class="st0">
	<g class="st1">
		<path class="st2" d="M21.1,0.7c4.8,5,20,5.4,20,5.4v17.5c0,11.4-20,24-20,24S1,35,1,23.6V6.1C1,6.1,16.3,5.6,21.1,0.7 M21.1-0.8
			L20.3,0C15.9,4.6,1.1,5,1,5.1l-1,0l0,1v17.5c0,11.8,19.7,24.3,20.5,24.8l0.5,0.3l0.5-0.3c0.8-0.5,20.5-13,20.5-24.8V6.1v-1l-1,0
			C41,5,26.2,4.6,21.8,0L21.1-0.8L21.1-0.8z"/>
	</g>
	<g class="st1">
		<path class="st2" d="M21.1,6.1c3.9,3.2,12.9,3.9,15.5,4.1v13.5c0,8-13.1,17-15.5,18.6C18.6,40.7,5.5,31.7,5.5,23.7V10.2
			C8.2,10,17.2,9.3,21.1,6.1 M21.1,5.1c-3.9,4-16.3,4.4-16.3,4.4v14.3c0,9.3,16.3,19.5,16.3,19.5S37.3,33,37.3,23.7V9.4
			C37.3,9.4,24.9,9.1,21.1,5.1L21.1,5.1z"/>
	</g>
	<polygon class="st1" points="30.4,20 30.4,25.5 24,25.5 24,31.6 18.2,31.6 18.2,25.5 11.9,25.5 11.9,20 18.2,20 18.2,13.9 24,13.9 
		24,20 	"/>
</g>
<g>
	<path class="st3" d="M40.2,5c-3.1-0.2-13.7-1-17.9-4.6C22,0.2,21.5,0,21.1,0c-0.5,0-0.9,0.2-1.3,0.5C15.5,4,5,4.8,1.9,5
		C0.8,5.1,0,5.9,0,7v16.6c0,10.8,16.6,22.3,20,24.5c0.3,0.2,0.7,0.3,1.1,0.3c0.4,0,0.8-0.1,1.1-0.3c3.3-2.2,20-13.7,20-24.5V7
		C42.1,5.9,41.3,5.1,40.2,5z M41.1,23.6c0,10.3-16.3,21.5-19.5,23.6c-0.2,0.1-0.4,0.2-0.5,0.2s-0.4,0-0.6-0.2
		C17.3,45.1,1,33.9,1,23.6V7c0-0.5,0.4-1,0.9-1c3.2-0.2,14-1.1,18.5-4.8C20.6,1.1,20.8,1,21.1,1c0.2,0,0.4,0.1,0.6,0.2
		C26.2,5,36.9,5.8,40.2,6c0.5,0,0.9,0.5,0.9,1V23.6z"/>
	<path class="st4" d="M40.2,6c-3.2-0.2-14-1.1-18.5-4.8C21.5,1.1,21.3,1,21.1,1c-0.2,0-0.4,0.1-0.6,0.2C15.9,5,5.2,5.8,1.9,6
		C1.4,6,1,6.5,1,7v16.6c0,10.3,16.3,21.5,19.5,23.6c0.2,0.1,0.4,0.2,0.6,0.2s0.4,0,0.5-0.2c3.2-2.1,19.5-13.4,19.5-23.6V7
		C41.1,6.5,40.7,6,40.2,6z M37.3,23.7c0,8.2-12.9,17.2-15.7,19.1C21.4,43,21.2,43,21.1,43s-0.4,0-0.6-0.2C17.7,41,4.8,31.9,4.8,23.7
		V10.4c0-0.5,0.4-1,0.9-1c2.8-0.2,11.1-0.9,14.8-3.8c0.2-0.1,0.4-0.2,0.6-0.2c0.2,0,0.4,0.1,0.6,0.2c3.6,2.9,12,3.6,14.8,3.8
		c0.5,0,0.9,0.5,0.9,1V23.7z"/>
	<path class="st5" d="M36.4,9.4c-2.8-0.2-11.1-0.9-14.8-3.8c-0.2-0.1-0.4-0.2-0.6-0.2c-0.2,0-0.4,0.1-0.6,0.2
		c-3.6,2.9-12,3.6-14.8,3.8c-0.5,0-0.9,0.5-0.9,1v13.3c0,8.2,12.9,17.2,15.7,19.1c0.2,0.1,0.4,0.2,0.6,0.2s0.4,0,0.5-0.2
		c2.8-1.9,15.7-10.9,15.7-19.1V10.4C37.3,9.9,36.9,9.4,36.4,9.4z M36.6,23.7c0,7.9-12.8,16.8-15.4,18.5c0,0-0.1,0-0.1,0
		c-0.1,0-0.1,0-0.1,0C18.3,40.5,5.5,31.6,5.5,23.7V10.4c0-0.1,0.1-0.2,0.2-0.2c3.3-0.2,11.4-1,15.2-4c0,0,0.1,0,0.1,0
		c0,0,0.1,0,0.1,0c3.7,3,11.9,3.8,15.2,4c0.1,0,0.2,0.1,0.2,0.2V23.7z"/>
	<path class="st6" d="M36.4,10.2c-3.3-0.2-11.4-1-15.2-4c0,0-0.1,0-0.1,0c0,0-0.1,0-0.1,0c-3.7,3-11.9,3.8-15.2,4
		c-0.1,0-0.2,0.1-0.2,0.2v13.3c0,7.9,12.8,16.8,15.4,18.5c0,0,0.1,0,0.1,0c0,0,0.1,0,0.1,0c2.6-1.7,15.4-10.6,15.4-18.5V10.4
		C36.6,10.3,36.5,10.2,36.4,10.2z M30.4,24.5c0,0.6-0.5,1-1,1H25c-0.5,0-1,0.5-1,1v4.1c0,0.5-0.4,1-1,1h-3.8c-0.5,0-1-0.5-1-1v-4.1
		c0-0.5-0.4-1-1-1h-4.4c-0.5,0-1-0.4-1-1V21c0-0.5,0.5-1,1-1h4.4c0.6,0,1-0.5,1-1v-4.1c0-0.5,0.5-1,1-1H23c0.6,0,1,0.5,1,1V19
		c0,0.5,0.5,1,1,1h4.4c0.5,0,1,0.5,1,1V24.5z"/>
	<path class="st7" d="M30.4,21v3.5c0,0.6-0.5,1-1,1H25c-0.5,0-1,0.5-1,1v4.1c0,0.5-0.4,1-1,1h-3.8c-0.5,0-1-0.5-1-1v-4.1
		c0-0.5-0.4-1-1-1h-4.4c-0.5,0-1-0.4-1-1V21c0-0.5,0.5-1,1-1h4.4c0.6,0,1-0.5,1-1v-4.1c0-0.5,0.5-1,1-1H23c0.6,0,1,0.5,1,1V19
		c0,0.5,0.5,1,1,1h4.4C30,20,30.4,20.4,30.4,21z"/>
</g>
</svg>
